<svg xmlns="http://www.w3.org/2000/svg" viewBox="0 0 64 64" role="img" aria-label="割り勘くん"><rect width="64" height="64" rx="14" fill="#2563eb"/><path fill="#ffffff" d="M34.51,8.13A24,24 0 0 1 46.11,51.42L40.82,44.14A15,15 0 0 0 33.57,17.08Z"/><path fill="#b9d3ff" d="M41.76,53.93A24,24 0 0 1 8.44,36.58L17.28,34.86A15,15 0 0 0 38.1,45.7Z"/><path fill="#7fa9f7" d="M8,31.58A24,24 0 0 1 29.49,8.13L30.43,17.08A15,15 0 0 0 17,31.74Z"/><g stroke="#ffffff" stroke-width="4.2" stroke-linecap="round" fill="none"><path d="M24.21,22.83L32,32.46L39.79,22.83"/><line x1="32" y1="32.46" x2="32" y2="41.17"/><line x1="25.58" y1="35.21" x2="38.42" y2="35.21"/><line x1="25.58" y1="38.88" x2="38.42" y2="38.88"/></g></svg>
